<svg width="1724" height="907" viewBox="0 0 1724 907" fill="none" xmlns="http://www.w3.org/2000/svg">
<path fill-rule="evenodd" clip-rule="evenodd" d="M1298 490.044C1298 428.158 1268.03 379.325 1210.76 379.325C1153.24 379.325 1118.44 428.158 1118.44 489.561C1118.44 562.326 1159.53 599.071 1218.49 599.071C1247.25 599.071 1269 592.544 1285.43 583.358V535.009C1269 543.228 1250.15 548.305 1226.22 548.305C1202.78 548.305 1182 540.086 1179.34 511.56H1297.52C1297.52 508.417 1298 495.846 1298 490.044ZM1178.62 467.079C1178.62 439.761 1195.29 428.399 1210.52 428.399C1225.26 428.399 1240.97 439.761 1240.97 467.079H1178.62ZM1025.16 379.325C1001.48 379.325 986.25 390.445 977.792 398.181L974.65 383.193H921.483V665.068L981.9 652.255L982.142 583.842C990.842 590.127 1003.65 599.071 1024.92 599.071C1068.17 599.071 1107.57 564.26 1107.57 487.627C1107.32 417.521 1067.45 379.325 1025.16 379.325ZM1010.66 545.888C996.4 545.888 987.942 540.811 982.142 534.526L981.9 444.838C988.183 437.827 996.883 432.993 1010.66 432.993C1032.65 432.993 1047.88 457.651 1047.88 489.319C1047.88 521.713 1032.89 545.888 1010.66 545.888ZM838.35 365.062L899.008 352.008V302.934L838.35 315.746V365.062ZM838.35 383.435H899.008V594.962H838.35V383.435ZM773.342 401.324L769.475 383.435H717.275V594.962H777.692V451.607C791.95 432.993 816.117 436.377 823.608 439.036V383.435C815.875 380.534 787.6 375.215 773.342 401.324ZM652.508 330.976L593.542 343.547L593.3 537.185C593.3 572.963 620.125 599.313 655.892 599.313C675.708 599.313 690.208 595.687 698.183 591.336V542.261C690.45 545.404 652.267 556.524 652.267 520.746V434.926H698.183V383.435H652.267L652.508 330.976ZM489.142 444.838C489.142 435.41 496.875 431.784 509.683 431.784C528.05 431.784 551.25 437.344 569.617 447.255V390.445C549.558 382.468 529.742 379.325 509.683 379.325C460.625 379.325 428 404.95 428 447.739C428 514.461 519.833 503.824 519.833 532.592C519.833 543.712 510.167 547.338 496.633 547.338C476.575 547.338 450.958 539.119 430.658 527.998V585.534C453.133 595.204 475.85 599.313 496.633 599.313C546.9 599.313 581.458 574.413 581.458 531.141C581.217 459.101 489.142 471.913 489.142 444.838Z" fill="#635BFF"/>
</svg>
